<svg id="Layer_1" data-name="Layer 1" xmlns="http://www.w3.org/2000/svg" viewBox="0 0 429.24 344.86"><defs><style>.cls-1{fill:#132531;}</style></defs><title>businesscards</title><path class="cls-1" d="M160.08,167.63l-2.77,61.6-2.76,61.34L153,325.24c-.08,1.93,2.92,1.92,3,0l2.77-61.6,2.76-61.34,1.56-34.67c.09-1.93-2.91-1.92-3,0Z" transform="translate(-103.1 -98.22)"/><path class="cls-1" d="M136.45,182.21l136.87,2.24,136.16,2.23,76.82,1.26c1.93,0,1.93-3,0-3L349.43,182.7l-136.16-2.23-76.82-1.26c-1.93,0-1.93,3,0,3Z" transform="translate(-103.1 -98.22)"/><path class="cls-1" d="M461.79,171.36l.88,71,.89,71,.49,40h3q-.17-5.35-.35-10.71c-.06-1.93-3.06-1.94-3,0q.18,5.36.35,10.71c.07,1.92,3,1.94,3,0l-.88-71-.88-71-.5-40c0-1.93-3-1.93-3,0Z" transform="translate(-103.1 -98.22)"/><path class="cls-1" d="M104.54,306.14q78.79-3.28,157.7-2.13t157.57,6.76q44.32,3.17,88.53,7.72c1.92.2,1.91-2.8,0-3q-78.45-8.08-157.27-11.76t-157.69-2.88q-44.43.43-88.84,2.29c-1.92.08-1.93,3.08,0,3Z" transform="translate(-103.1 -98.22)"/><path class="cls-1" d="M173.37,199.88q2.82,13.71,6.92,27.09a1.51,1.51,0,0,0,2.74.36l.61-1.14c.91-1.7-1.68-3.21-2.59-1.51l-.61,1.14,2.74.35q-4.1-13.36-6.91-27.09c-.39-1.89-3.28-1.09-2.9.8Z" transform="translate(-103.1 -98.22)"/><path class="cls-1" d="M186.52,197.71q-6.08,24.47-10,49.4-1.1,7.06-2,14.15a1.5,1.5,0,0,0,3,0q3.22-24.67,8.64-49c1-4.6,2.11-9.18,3.24-13.75.47-1.88-2.42-2.67-2.89-.8Z" transform="translate(-103.1 -98.22)"/><path class="cls-1" d="M194.73,222.26l1.5-.76-2.06-.54a23.6,23.6,0,0,1,1.15,20.95c-.44,1-1.37,3.47-2.83,3.07s-2.09-2.61-2.44-3.84a18.15,18.15,0,0,1,.13-10.25,17.56,17.56,0,0,1,2.65-5.32,5.77,5.77,0,0,1,2-1.94c.5-.23,1.65-.29,1.68.49.06,1.93,3.06,1.94,3,0a3.91,3.91,0,0,0-4.39-3.64c-2.41.24-4.1,2.33-5.34,4.21a21,21,0,0,0-3.32,13.63c.38,3.61,2.27,11,7.43,9.56,2.2-.62,3.33-2.9,4.17-4.82a26.64,26.64,0,0,0-1.32-23.61,1.53,1.53,0,0,0-2-.54l-1.5.76c-1.72.87-.2,3.46,1.52,2.59Z" transform="translate(-103.1 -98.22)"/><path class="cls-1" d="M206.11,220.59a45.56,45.56,0,0,0,3.63,27.58,1.51,1.51,0,0,0,2.36.31,27.58,27.58,0,0,0,6-17.68c0-1.92-3-1.93-3,0A24.38,24.38,0,0,1,210,246.35l2.35.31A42.11,42.11,0,0,1,209,221.39c.34-1.89-2.55-2.7-2.89-.8Z" transform="translate(-103.1 -98.22)"/><path class="cls-1" d="M217.88,219.17l-1.83,28.42a1.51,1.51,0,0,0,2.95.4l.56-2.48c.43-1.88-2.46-2.69-2.89-.8l-.56,2.48,2.94.4,1.83-28.42c.12-1.93-2.88-1.92-3,0Z" transform="translate(-103.1 -98.22)"/><path class="cls-1" d="M224.78,222.75l1,24.76,2.95-.4c-.88-5.24-1.1-11.11,1.39-16,2-3.94,5.81-7.21,10.38-7.39,1.93-.08,1.94-3.08,0-3-5.49.21-10.24,3.81-12.8,8.55-3.07,5.69-2.9,12.41-1.86,18.61.28,1.67,3,1.27,2.94-.4l-1-24.76c-.07-1.93-3.07-1.94-3,0Z" transform="translate(-103.1 -98.22)"/><path class="cls-1" d="M284.65,220.17a6.25,6.25,0,0,0-3.54-6.95,8.26,8.26,0,0,0-8.62.64c-2.77,1.89-4.61,4.78-6.21,7.66a91.41,91.41,0,0,0-10.79,33.3,86.77,86.77,0,0,0-.66,11.73,33.31,33.31,0,0,0,1.6,11,15.58,15.58,0,0,0,7,8.63,11.38,11.38,0,0,0,10.14.69c1.77-.76.24-3.35-1.52-2.59-5.31,2.29-10.72-2.48-12.54-7.14-2.33-5.92-1.85-13-1.31-19.19,1.13-12.85,5.09-26.09,12-37.06,1.48-2.35,3.66-5.21,6.64-5.58,2.21-.28,5.61,1.49,5,4.11-.45,1.87,2.44,2.67,2.89.79Z" transform="translate(-103.1 -98.22)"/><path class="cls-1" d="M295.6,263.5l-.24.75-.18.1a3.69,3.69,0,0,0,.29.5,8.8,8.8,0,0,1,.47,1.24,30.25,30.25,0,0,1,.91,3.26,28.63,28.63,0,0,1,.68,6.53c0,2.71-.55,6.32-3,7.91-2.81,1.78-6.18-.66-7.26-3.34-1.48-3.66.09-8.22,1.82-11.52.77-1.47,1.92-3.26,3.67-3.64,1.32-.28,2.94.23,3.22,1.68.37,1.89,3.26,1.09,2.89-.8a5.23,5.23,0,0,0-4.86-3.92,7.09,7.09,0,0,0-6.13,3,21.43,21.43,0,0,0-3.5,7.53,13.75,13.75,0,0,0,.21,9c1.89,4.4,7.5,7.41,11.81,4.36s4.5-9,4-13.64a33.87,33.87,0,0,0-1-5.39,14.29,14.29,0,0,0-1.66-4.34,2.87,2.87,0,0,0-3.76-1.16,2.39,2.39,0,0,0-1,3.41c1.15,1.52,3.75,0,2.59-1.52Z" transform="translate(-103.1 -98.22)"/><path class="cls-1" d="M305.18,262.55l-.93,19.85h3c.21-6.5.59-14.74,7-18.4l-2.21-.89a126.89,126.89,0,0,1,2.83,18.81,1.5,1.5,0,0,0,3,0,45.22,45.22,0,0,1,1.85-10.12,43.28,43.28,0,0,1,1.7-4.66c.41-.93,1.11-3.13,2.27-3.44,1.45-.39,1.19,6.37,1.23,7.21l.47,11.3c.08,1.93,3.08,1.94,3,0l-.45-10.67-.21-5.23a8.75,8.75,0,0,0-.73-3.69,3.58,3.58,0,0,0-3-2,4.47,4.47,0,0,0-3.48,1.92,16.47,16.47,0,0,0-2.07,3.94c-.61,1.47-1.16,3-1.62,4.49a48.8,48.8,0,0,0-2,10.92h3a133.7,133.7,0,0,0-2.93-19.61,1.52,1.52,0,0,0-2.21-.9c-7.39,4.25-8.2,13.35-8.45,21-.07,1.93,2.91,1.92,3,0l.93-19.85c.1-1.93-2.9-1.93-3,0Z" transform="translate(-103.1 -98.22)"/><path class="cls-1" d="M336.8,261.2l-.93,29.51c-.06,1.93,2.94,1.93,3,0l.93-29.51c.06-1.93-2.94-1.93-3,0Z" transform="translate(-103.1 -98.22)"/><path class="cls-1" d="M335.48,267.17a4.08,4.08,0,0,1,4.7-2.52c2.34.47,3.84,2.89,4.13,5.12.79,6.15-5.34,10.47-9.71,13.49-1.58,1.09-.08,3.7,1.51,2.59,4.85-3.35,10.22-7.32,11.11-13.59.73-5.06-2.75-11.23-8.5-10.65a7,7,0,0,0-6.13,4.77c-.55,1.85,2.34,2.64,2.89.79Z" transform="translate(-103.1 -98.22)"/><path class="cls-1" d="M362.81,269.69l-2.73-7.38a1.52,1.52,0,0,0-2.51-.66,18,18,0,0,0-4.28,18A1.52,1.52,0,0,0,356,280a63.85,63.85,0,0,0,6.11-15.1h-2.9a61.69,61.69,0,0,1,1.4,14.84c0,1.78,2.38,1.91,2.95.4L364,279a1.5,1.5,0,0,0-2.89-.8l-.41,1.08,2.95.4a65.76,65.76,0,0,0-1.5-15.64,1.52,1.52,0,0,0-2.9,0,60.19,60.19,0,0,1-5.8,14.38l2.75.36a15,15,0,0,1,3.5-15.05l-2.51-.66,2.74,7.37a1.53,1.53,0,0,0,1.84,1,1.51,1.51,0,0,0,1.05-1.84Z" transform="translate(-103.1 -98.22)"/><path class="cls-1" d="M369,259l1.88,20.08a1.5,1.5,0,0,0,3,0,33.54,33.54,0,0,1,2.44-9,33.15,33.15,0,0,1,2.07-4,9.45,9.45,0,0,1,2.65-3.29c1.12-.74,1.67-.09,2,1,.37,1.5.5,3.09.73,4.62L385.32,279a1.53,1.53,0,0,0,1.85,1.05l1.28-.3c1.88-.43,1.09-3.32-.8-2.89l-1.28.3,1.85,1-1.48-9.76c-.23-1.56-.44-3.14-.71-4.7a5.82,5.82,0,0,0-1.5-3.27c-2.22-2.12-5.26-.56-6.91,1.43a30.06,30.06,0,0,0-4.25,7.53,37.39,37.39,0,0,0-2.49,9.64h3L372,259c-.18-1.91-3.18-1.93-3,0Z" transform="translate(-103.1 -98.22)"/><path class="cls-1" d="M395.48,259.42a54.23,54.23,0,0,0,5,19,1.5,1.5,0,0,0,2.59,0L414,253c.75-1.75-1.83-3.28-2.59-1.51L400.47,276.9h2.59a50.32,50.32,0,0,1-4.58-17.48c-.14-1.92-3.14-1.93-3,0Z" transform="translate(-103.1 -98.22)"/><path class="cls-1" d="M402.94,270.6a32.49,32.49,0,0,1-22.22,23.95,1.51,1.51,0,0,0,.4,2.95l.75,0c1.93.12,1.92-2.88,0-3l-.75,0,.4,2.94a35.53,35.53,0,0,0,24.32-26c.41-1.88-2.48-2.68-2.9-.8Z" transform="translate(-103.1 -98.22)"/><path class="cls-1" d="M437.91,214.73l-8.43,47.86c-.33,1.89,2.56,2.7,2.89.8l8.44-47.86c.33-1.89-2.56-2.7-2.9-.8Z" transform="translate(-103.1 -98.22)"/><path class="cls-1" d="M424.31,287.37h.06l-.4-.05a2.21,2.21,0,0,1,.56.15l-.36-.15a2.33,2.33,0,0,1,.55.32l-.3-.24a3.31,3.31,0,0,1,.5.49l-.24-.3a2.88,2.88,0,0,1,.39.65l-.15-.36a3.35,3.35,0,0,1,.17.62l-.06-.4a2.66,2.66,0,0,1,0,.63l0-.4a2.64,2.64,0,0,1-.15.55l.15-.36a3.14,3.14,0,0,1-.28.46l.24-.31a2.78,2.78,0,0,1-.42.42l.3-.24a2.77,2.77,0,0,1-.6.35l.35-.15a2.55,2.55,0,0,1-.67.18l.4-.05a3.42,3.42,0,0,1-.64,0l.4.05a2.35,2.35,0,0,1-.52-.14l.36.15a2.59,2.59,0,0,1-.46-.26l.3.23a2.57,2.57,0,0,1-.33-.33l.24.3a2.43,2.43,0,0,1-.29-.49l.15.36a2.61,2.61,0,0,1-.16-.61l.05.4a2.58,2.58,0,0,1,0-.68l-.06.39a2.52,2.52,0,0,1,.18-.65l-.15.36a2,2,0,0,1,.26-.45l-.24.31a2.16,2.16,0,0,1,.37-.37l-.31.24a2,2,0,0,1,.37-.22l-.36.16a1.84,1.84,0,0,1,.51-.14l-.4.05a2.26,2.26,0,0,1,.52,0l-.4-.06a2.66,2.66,0,0,1,.67.18l-.36-.15a3.08,3.08,0,0,1,.55.33l-.31-.24a3.18,3.18,0,0,1,.41.41l-.24-.3a2.36,2.36,0,0,1,.24.4l-.15-.36a1.88,1.88,0,0,1,.12.45l-.05-.39a1.62,1.62,0,0,1,0,.44l.06-.4a2.05,2.05,0,0,1-.14.5l.15-.36a2.43,2.43,0,0,1-.26.44l.23-.3a2.65,2.65,0,0,1-.41.41l.3-.24a2.43,2.43,0,0,1-.49.29l.36-.15a2.22,2.22,0,0,1-.49.13l.39-.05a3.23,3.23,0,0,1-.44,0l.4.05a1.74,1.74,0,0,1-.39-.11l.36.16a2.33,2.33,0,0,1-.34-.2l.31.24a2.29,2.29,0,0,1-.27-.27l.23.3a2.86,2.86,0,0,1-.24-.42l.16.36a1.84,1.84,0,0,1-.14-.51l.05.39a2.35,2.35,0,0,1,0-.53l-.06.4a1.83,1.83,0,0,1,.12-.46l-.15.36a2,2,0,0,1,.21-.37l-.24.31a1.36,1.36,0,0,1,.24-.24l-.31.24a1.33,1.33,0,0,1,.3-.18l-.36.15a1.06,1.06,0,0,1,.35-.09l-.4.05a2,2,0,0,1,.35,0l-.4-.05a1.82,1.82,0,0,1,.4.11l-.36-.15a2.51,2.51,0,0,1,.45.26l-.31-.23a2.13,2.13,0,0,1,.34.33l-.24-.3a1.9,1.9,0,0,1,.23.39l-.15-.35a1.39,1.39,0,0,1,.1.33l-.06-.4a1.37,1.37,0,0,1,0,.35l.05-.4a1.67,1.67,0,0,1-.08.3l.15-.36a1.71,1.71,0,0,1-.13.23l.23-.3a2,2,0,0,1-.2.21l.3-.24a1.38,1.38,0,0,1-.29.17l.36-.16a1.61,1.61,0,0,1-.36.1l.4-.05a2.57,2.57,0,0,1-.48,0l.4.06a2.42,2.42,0,0,1-.46-.13l.36.15a1.48,1.48,0,0,1-.37-.21l.3.23a1.25,1.25,0,0,1-.23-.23l.24.31a1.28,1.28,0,0,1-.15-.25l.16.36a1,1,0,0,1-.07-.23l.05.39a1.48,1.48,0,0,1,0-.21,1.5,1.5,0,0,0-1.5-1.5,1.54,1.54,0,0,0-1.5,1.5,2.69,2.69,0,0,0,1.33,2.32,3.38,3.38,0,0,0,2.45.37,2.67,2.67,0,0,0,1.95-1.85,3,3,0,0,0-.79-2.85,3.2,3.2,0,0,0-2.47-1,2.83,2.83,0,0,0-2.38,1.61,3.5,3.5,0,0,0-.15,2.62,3.21,3.21,0,0,0,2.05,2,3.37,3.37,0,0,0,2.82-.5,3.65,3.65,0,0,0,1.58-2.71,3.33,3.33,0,0,0-1-2.54,4,4,0,0,0-2.52-1.13,3.33,3.33,0,0,0-2.54.91,3.74,3.74,0,0,0-1.11,2.48,3.62,3.62,0,0,0,2.82,3.88,4.24,4.24,0,0,0,2.77-.43,3.93,3.93,0,0,0,1.78-2.11,3.86,3.86,0,0,0-.22-2.87,4.07,4.07,0,0,0-1.75-1.87,4.29,4.29,0,0,0-1.59-.47,1.5,1.5,0,0,0-1.5,1.5,1.54,1.54,0,0,0,.44,1.06,1.71,1.71,0,0,0,1.06.44Z" transform="translate(-103.1 -98.22)"/><path class="cls-1" d="M336.84,103a418.61,418.61,0,0,0-.54,65.1q.65,9.21,1.69,18.37c.22,1.9,3.22,1.92,3,0a418.47,418.47,0,0,1-2.33-65.07q.39-9.21,1.18-18.4c.17-1.92-2.83-1.91-3,0Z" transform="translate(-103.1 -98.22)"/><path class="cls-1" d="M322.15,114c23.12-.68,46.25-.49,69.37.16s46.24,1.77,69.35,2.9L499.44,119c1.93.1,1.93-2.9,0-3-23-1.12-46-2.3-69-3.33s-46.23-1.85-69.36-2c-13-.09-26,0-38.93.4-1.93.06-1.93,3.06,0,3Z" transform="translate(-103.1 -98.22)"/><path class="cls-1" d="M477.81,99.67l.4,104.46.4,103.93.23,58.63c0,2,2.78,1.87,3,0l.52-4.52c.23-1.91-2.78-1.9-3,0l-.52,4.52h3l-.4-104.46L481,158.3l-.23-58.63a1.5,1.5,0,0,0-3,0Z" transform="translate(-103.1 -98.22)"/><path class="cls-1" d="M492.36,342.09q-34.28,1.85-68.6,1.65t-68.58-2.46q-19.29-1.27-38.52-3.2c-1.92-.19-1.9,2.81,0,3q34.15,3.42,68.46,4.78t68.62.67q19.32-.39,38.62-1.44c1.92-.11,1.93-3.11,0-3Z" transform="translate(-103.1 -98.22)"/><path class="cls-1" d="M337.38,305.65l.68,63.94.19,18a1.5,1.5,0,0,0,3,0l.5-7.21c.13-1.93-2.87-1.92-3,0l-.5,7.21h3l-.68-63.95-.19-18a1.5,1.5,0,0,0-3,0Z" transform="translate(-103.1 -98.22)"/><path class="cls-1" d="M441.44,154A569.26,569.26,0,0,0,510,158.63q9.64.06,19.29-.2c1.19,0,2.11-1.69,1.06-2.56l-2.17-1.79c-1.47-1.22-3.61.89-2.12,2.12l2.17,1.79,1.06-2.56a570.13,570.13,0,0,1-68.66-2.29q-9.6-.91-19.17-2.14c-1.91-.24-1.89,2.76,0,3Z" transform="translate(-103.1 -98.22)"/><path class="cls-1" d="M502.21,134.94Q508,194.67,511,254.61q3,59.63,3.2,119.35.12,33.81-.64,67.61a1.51,1.51,0,0,0,2.56,1.06l2.59-3c1.26-1.46-.86-3.59-2.12-2.12l-2.59,3,2.56,1.06q1.35-60-.08-120Q515,261.9,510.83,202.32q-2.37-33.72-5.62-67.38c-.19-1.91-3.19-1.93-3,0Z" transform="translate(-103.1 -98.22)"/><path class="cls-1" d="M530.46,376.81q-26.76,4.76-53.81,7.52-26.86,2.73-53.88,3.47-15.34.42-30.68.19c-1.93,0-1.93,3,0,3q27.24.39,54.47-1.23t54.38-5.31q15.21-2.06,30.31-4.75c1.9-.34,1.1-3.23-.79-2.89Z" transform="translate(-103.1 -98.22)"/><path class="cls-1" d="M398.15,306.31a492.62,492.62,0,0,0,4.52,80.6q1.59,11.41,3.71,22.75c.36,1.9,3.25,1.09,2.9-.8a486,486,0,0,1-8.21-80q-.22-11.28.08-22.55c.05-1.94-2.95-1.93-3,0Z" transform="translate(-103.1 -98.22)"/></svg>